# xmcd
#
# Track frame offsets:
#	150
#	10840
#	21890
#	33597
#	46517
#	58235
#	69795
#	81255
#	90327
#	101709
#	112976
#	124864
#	135872
#	147597
#	158315
#	169155
#	180615
#	193183
#	203985
#	215383
#	226284
#	236803
#	248933
#	261868
#	273100
#
# Disc length: 3837 seconds
#
# Revision: 0
# Processed by: cddbd v1.5.2PL0 Copyright (c) Steve Scherf et al.
# Submitted via: audiograbber 1.83.01
#
DISCID=520efb19
DTITLE=Patsy Cline - Reflections - Disc 2 of 2
DYEAR=2006
DGENRE=Country
TTITLE0=Pick Me Up (On Your Way Down)
TTITLE1=Stop Look And Listen
TTITLE2=That Wonderful Someone
TTITLE3=Fingerprints
TTITLE4=Cry Not For Me
TTITLE5=Hidin' Out
TTITLE6=A Stranger In My Arms
TTITLE7=Come On In (And Make Yourself At Home)
TTITLE8=I Can't Forget You
TTITLE9=Stop The World And Let Me Off
TTITLE10=The Heart You Break May Be Your Own
TTITLE11=I Can See An Angel Walkin'
TTITLE12=I Go To Church On Sunday
TTITLE13=How Can I Face Tomorrow
TTITLE14=He'll Do For You (What He's Done For Me)
TTITLE15=Don't Ever Leave Me Again
TTITLE16=A Poor Man's Roses (Or A Rich Man's Gold)
TTITLE17=I Love You Honey
TTITLE18=I Cried All The Way To The Alter
TTITLE19=Honky Tonk Merry-Go Round
TTITLE20=Three Cigarettes In An Ashtray
TTITLE21=Today, Tomorrow And Forever
TTITLE22=Yes, I Understand
TTITLE23=I Don't Wanta
TTITLE24=Then You'll Know
EXTD=
EXTT0=
EXTT1=
EXTT2=
EXTT3=
EXTT4=
EXTT5=
EXTT6=
EXTT7=
EXTT8=
EXTT9=
EXTT10=
EXTT11=
EXTT12=
EXTT13=
EXTT14=
EXTT15=
EXTT16=
EXTT17=
EXTT18=
EXTT19=
EXTT20=
EXTT21=
EXTT22=
EXTT23=
EXTT24=
PLAYORDER=
